<mxfile host="Electron" agent="Mozilla/5.0 (Windows NT 10.0; Win64; x64) AppleWebKit/537.36 (KHTML, like Gecko) draw.io/24.7.17 Chrome/128.0.6613.36 Electron/32.0.1 Safari/537.36" version="24.7.17">
  <diagram name="第 1 页" id="8QvNs3QFdQwA9z5A9OqT">
    <mxGraphModel dx="1036" dy="609" grid="1" gridSize="10" guides="1" tooltips="1" connect="1" arrows="1" fold="1" page="1" pageScale="1" pageWidth="827" pageHeight="1169" math="0" shadow="0">
      <root>
        <mxCell id="0" />
        <mxCell id="1" parent="0" />
        <mxCell id="TkWSuQCbv7SXN5yDMdWY-1" value="" style="rounded=0;whiteSpace=wrap;html=1;fillColor=#f5f5f5;fontColor=#333333;strokeColor=#666666;" vertex="1" parent="1">
          <mxGeometry x="134" y="160" width="586" height="210" as="geometry" />
        </mxCell>
        <mxCell id="TkWSuQCbv7SXN5yDMdWY-2" value="服务层" style="text;html=1;align=center;verticalAlign=middle;resizable=0;points=[];autosize=1;strokeColor=none;fillColor=none;fontStyle=1;fontSize=14;" vertex="1" parent="1">
          <mxGeometry x="55" y="250" width="70" height="30" as="geometry" />
        </mxCell>
        <mxCell id="TkWSuQCbv7SXN5yDMdWY-3" value="&lt;h4 style=&quot;font-weight: var(--ds-font-weight-strong); line-height: var(--ds-md-line-height); margin: calc(var(--ds-md-zoom)*16px)0 calc(var(--ds-md-zoom)*12px)0; color: rgb(64, 64, 64); font-family: Inter, system-ui, -apple-system, BlinkMacSystemFont, &amp;quot;Segoe UI&amp;quot;, Roboto, &amp;quot;Noto Sans&amp;quot;, Ubuntu, Cantarell, &amp;quot;Helvetica Neue&amp;quot;, Oxygen, &amp;quot;Open Sans&amp;quot;, sans-serif;&quot;&gt;&lt;strong style=&quot;&quot;&gt;&lt;font style=&quot;font-size: 12px;&quot;&gt;SQL 接口层&lt;/font&gt;&lt;/strong&gt;&lt;/h4&gt;&lt;h4 style=&quot;font-weight: var(--ds-font-weight-strong); line-height: var(--ds-md-line-height); margin: calc(var(--ds-md-zoom)*16px)0 calc(var(--ds-md-zoom)*12px)0; color: rgb(64, 64, 64); font-family: Inter, system-ui, -apple-system, BlinkMacSystemFont, &amp;quot;Segoe UI&amp;quot;, Roboto, &amp;quot;Noto Sans&amp;quot;, Ubuntu, Cantarell, &amp;quot;Helvetica Neue&amp;quot;, Oxygen, &amp;quot;Open Sans&amp;quot;, sans-serif;&quot;&gt;&lt;strong style=&quot;&quot;&gt;&lt;font style=&quot;font-size: 12px;&quot;&gt;SQL Interface&lt;/font&gt;&lt;/strong&gt;&lt;/h4&gt;" style="rounded=1;whiteSpace=wrap;html=1;align=left;fillColor=#dae8fc;strokeColor=#6c8ebf;" vertex="1" parent="1">
          <mxGeometry x="150" y="180" width="100" height="70" as="geometry" />
        </mxCell>
        <mxCell id="TkWSuQCbv7SXN5yDMdWY-4" value="" style="rounded=0;whiteSpace=wrap;html=1;fillColor=#f5f5f5;fontColor=#333333;strokeColor=#666666;" vertex="1" parent="1">
          <mxGeometry x="134" y="70" width="586" height="60" as="geometry" />
        </mxCell>
        <mxCell id="TkWSuQCbv7SXN5yDMdWY-5" value="连接层" style="text;html=1;align=center;verticalAlign=middle;resizable=0;points=[];autosize=1;strokeColor=none;fillColor=none;fontSize=14;fontStyle=1" vertex="1" parent="1">
          <mxGeometry x="55" y="85" width="70" height="30" as="geometry" />
        </mxCell>
        <mxCell id="TkWSuQCbv7SXN5yDMdWY-6" value="&lt;h4 style=&quot;font-weight: var(--ds-font-weight-strong); line-height: var(--ds-md-line-height); margin: calc(var(--ds-md-zoom)*16px)0 calc(var(--ds-md-zoom)*12px)0; color: rgb(64, 64, 64); font-family: Inter, system-ui, -apple-system, BlinkMacSystemFont, &amp;quot;Segoe UI&amp;quot;, Roboto, &amp;quot;Noto Sans&amp;quot;, Ubuntu, Cantarell, &amp;quot;Helvetica Neue&amp;quot;, Oxygen, &amp;quot;Open Sans&amp;quot;, sans-serif;&quot;&gt;&lt;strong style=&quot;&quot;&gt;&lt;font style=&quot;font-size: 12px;&quot;&gt;查询优化器&lt;/font&gt;&lt;/strong&gt;&lt;/h4&gt;&lt;h4 style=&quot;font-weight: var(--ds-font-weight-strong); line-height: var(--ds-md-line-height); margin: calc(var(--ds-md-zoom)*16px)0 calc(var(--ds-md-zoom)*12px)0; color: rgb(64, 64, 64); font-family: Inter, system-ui, -apple-system, BlinkMacSystemFont, &amp;quot;Segoe UI&amp;quot;, Roboto, &amp;quot;Noto Sans&amp;quot;, Ubuntu, Cantarell, &amp;quot;Helvetica Neue&amp;quot;, Oxygen, &amp;quot;Open Sans&amp;quot;, sans-serif;&quot;&gt;&lt;strong style=&quot;&quot;&gt;&lt;font style=&quot;font-size: 12px;&quot;&gt;Query Optimizer&lt;/font&gt;&lt;/strong&gt;&lt;/h4&gt;" style="rounded=1;whiteSpace=wrap;html=1;align=left;fillColor=#ffe6cc;strokeColor=#d79b00;" vertex="1" parent="1">
          <mxGeometry x="440" y="180" width="100" height="70" as="geometry" />
        </mxCell>
        <mxCell id="TkWSuQCbv7SXN5yDMdWY-7" value="&lt;h4 style=&quot;font-weight: var(--ds-font-weight-strong); line-height: var(--ds-md-line-height); margin: calc(var(--ds-md-zoom)*16px)0 calc(var(--ds-md-zoom)*12px)0; color: rgb(64, 64, 64);&quot;&gt;&lt;strong style=&quot;&quot;&gt;&lt;font style=&quot;font-size: 12px;&quot;&gt;查询执行器&lt;/font&gt;&lt;/strong&gt;&lt;/h4&gt;&lt;h4 style=&quot;font-weight: var(--ds-font-weight-strong); line-height: var(--ds-md-line-height); margin: calc(var(--ds-md-zoom)*16px)0 calc(var(--ds-md-zoom)*12px)0; color: rgb(64, 64, 64);&quot;&gt;&lt;strong style=&quot;&quot;&gt;&lt;font style=&quot;font-size: 12px;&quot;&gt;Query Executor&lt;/font&gt;&lt;/strong&gt;&lt;/h4&gt;" style="rounded=1;whiteSpace=wrap;html=1;align=left;fillColor=#f8cecc;strokeColor=#b85450;" vertex="1" parent="1">
          <mxGeometry x="590" y="180" width="100" height="70" as="geometry" />
        </mxCell>
        <mxCell id="TkWSuQCbv7SXN5yDMdWY-8" value="&lt;h4 style=&quot;font-weight: var(--ds-font-weight-strong); line-height: var(--ds-md-line-height); margin: calc(var(--ds-md-zoom)*16px)0 calc(var(--ds-md-zoom)*12px)0; color: rgb(64, 64, 64);&quot;&gt;&lt;strong style=&quot;&quot;&gt;&lt;font style=&quot;font-size: 12px;&quot; face=&quot;Helvetica&quot;&gt;SQL 解析器&lt;/font&gt;&lt;/strong&gt;&lt;/h4&gt;&lt;h4 style=&quot;font-weight: var(--ds-font-weight-strong); line-height: var(--ds-md-line-height); margin: calc(var(--ds-md-zoom)*16px)0 calc(var(--ds-md-zoom)*12px)0; color: rgb(64, 64, 64);&quot;&gt;&lt;strong style=&quot;&quot;&gt;&lt;font style=&quot;font-size: 12px;&quot; face=&quot;Helvetica&quot;&gt;SQL Parser&lt;/font&gt;&lt;/strong&gt;&lt;/h4&gt;" style="rounded=1;whiteSpace=wrap;html=1;align=left;fillColor=#d5e8d4;strokeColor=#82b366;" vertex="1" parent="1">
          <mxGeometry x="300" y="180" width="96" height="70" as="geometry" />
        </mxCell>
        <mxCell id="TkWSuQCbv7SXN5yDMdWY-9" value="&lt;h4 style=&quot;font-weight: var(--ds-font-weight-strong); line-height: var(--ds-md-line-height); margin: calc(var(--ds-md-zoom)*16px)0 calc(var(--ds-md-zoom)*12px)0; color: rgb(64, 64, 64); font-family: Inter, system-ui, -apple-system, BlinkMacSystemFont, &amp;quot;Segoe UI&amp;quot;, Roboto, &amp;quot;Noto Sans&amp;quot;, Ubuntu, Cantarell, &amp;quot;Helvetica Neue&amp;quot;, Oxygen, &amp;quot;Open Sans&amp;quot;, sans-serif;&quot;&gt;&lt;strong style=&quot;&quot;&gt;&lt;font style=&quot;font-size: 12px;&quot;&gt;缓存&lt;/font&gt;&lt;/strong&gt;&lt;/h4&gt;&lt;h4 style=&quot;font-weight: var(--ds-font-weight-strong); line-height: var(--ds-md-line-height); margin: calc(var(--ds-md-zoom)*16px)0 calc(var(--ds-md-zoom)*12px)0; color: rgb(64, 64, 64); font-family: Inter, system-ui, -apple-system, BlinkMacSystemFont, &amp;quot;Segoe UI&amp;quot;, Roboto, &amp;quot;Noto Sans&amp;quot;, Ubuntu, Cantarell, &amp;quot;Helvetica Neue&amp;quot;, Oxygen, &amp;quot;Open Sans&amp;quot;, sans-serif;&quot;&gt;&lt;strong style=&quot;&quot;&gt;&lt;font style=&quot;font-size: 12px;&quot;&gt;Cache&lt;/font&gt;&lt;/strong&gt;&lt;/h4&gt;" style="rounded=1;whiteSpace=wrap;html=1;align=left;fillColor=#fad7ac;strokeColor=#b46504;" vertex="1" parent="1">
          <mxGeometry x="150" y="280" width="410" height="60" as="geometry" />
        </mxCell>
        <mxCell id="TkWSuQCbv7SXN5yDMdWY-11" value="" style="rounded=0;whiteSpace=wrap;html=1;fillColor=#f5f5f5;fontColor=#333333;strokeColor=#666666;" vertex="1" parent="1">
          <mxGeometry x="133" y="410" width="587" height="60" as="geometry" />
        </mxCell>
        <mxCell id="TkWSuQCbv7SXN5yDMdWY-12" value="&lt;font style=&quot;font-size: 14px;&quot;&gt;&lt;b&gt;存储&lt;font style=&quot;&quot;&gt;引擎&lt;/font&gt;&lt;/b&gt;&lt;/font&gt;" style="text;html=1;align=center;verticalAlign=middle;resizable=0;points=[];autosize=1;strokeColor=none;fillColor=none;" vertex="1" parent="1">
          <mxGeometry x="40" y="428" width="80" height="30" as="geometry" />
        </mxCell>
        <mxCell id="TkWSuQCbv7SXN5yDMdWY-13" value="" style="html=1;shadow=0;dashed=0;align=center;verticalAlign=middle;shape=mxgraph.arrows2.twoWayArrow;dy=0.65;dx=22;rotation=90;" vertex="1" parent="1">
          <mxGeometry x="310" y="260" width="65" height="20" as="geometry" />
        </mxCell>
        <mxCell id="TkWSuQCbv7SXN5yDMdWY-14" value="" style="html=1;shadow=0;dashed=0;align=center;verticalAlign=middle;shape=mxgraph.arrows2.twoWayArrow;dy=0.65;dx=22;rotation=90;" vertex="1" parent="1">
          <mxGeometry x="538.75" y="323.75" width="202.5" height="20" as="geometry" />
        </mxCell>
        <mxCell id="TkWSuQCbv7SXN5yDMdWY-15" value="" style="html=1;shadow=0;dashed=0;align=center;verticalAlign=middle;shape=mxgraph.arrows2.arrow;dy=0.6;dx=40;direction=south;notch=0;" vertex="1" parent="1">
          <mxGeometry x="200" y="110" width="20" height="80" as="geometry" />
        </mxCell>
        <mxCell id="TkWSuQCbv7SXN5yDMdWY-19" value="" style="html=1;shadow=0;dashed=0;align=center;verticalAlign=middle;shape=mxgraph.arrows2.arrow;dy=0.6;dx=40;notch=0;" vertex="1" parent="1">
          <mxGeometry x="240" y="205" width="60" height="20" as="geometry" />
        </mxCell>
        <mxCell id="TkWSuQCbv7SXN5yDMdWY-20" value="" style="html=1;shadow=0;dashed=0;align=center;verticalAlign=middle;shape=mxgraph.arrows2.arrow;dy=0.6;dx=40;notch=0;" vertex="1" parent="1">
          <mxGeometry x="387.5" y="207.5" width="56.5" height="15" as="geometry" />
        </mxCell>
        <mxCell id="TkWSuQCbv7SXN5yDMdWY-22" value="" style="html=1;shadow=0;dashed=0;align=center;verticalAlign=middle;shape=mxgraph.arrows2.arrow;dy=0.6;dx=40;notch=0;" vertex="1" parent="1">
          <mxGeometry x="533.5" y="207.5" width="56.5" height="15" as="geometry" />
        </mxCell>
        <mxCell id="TkWSuQCbv7SXN5yDMdWY-23" value="" style="html=1;shadow=0;dashed=0;align=center;verticalAlign=middle;shape=mxgraph.arrows2.arrow;dy=0.6;dx=40;direction=north;notch=0;" vertex="1" parent="1">
          <mxGeometry x="627.5" y="115" width="25" height="75" as="geometry" />
        </mxCell>
        <mxCell id="TkWSuQCbv7SXN5yDMdWY-26" value="" style="html=1;shadow=0;dashed=0;align=center;verticalAlign=middle;shape=mxgraph.arrows2.arrow;dy=0.6;dx=40;direction=north;notch=0;" vertex="1" parent="1">
          <mxGeometry x="330" y="115" width="25" height="75" as="geometry" />
        </mxCell>
      </root>
    </mxGraphModel>
  </diagram>
</mxfile>
